<svg width="33" height="33" viewBox="0 0 33 33" fill="none" xmlns="http://www.w3.org/2000/svg">
<rect x="-0.0078125" y="0.48291" width="32.0938" height="32.0938" rx="12" fill="#EAEAEA"/>
<path d="M20.7923 17.8612V16.4065H19.8332V18.085C19.8315 18.1585 19.8435 18.2316 19.8684 18.2992C19.8932 18.3668 19.9303 18.4273 19.9771 18.4766L21.2719 19.9872V20.8824H10.7216V19.9872L12.0164 18.4766C12.0632 18.4273 12.1003 18.3668 12.1251 18.2992C12.15 18.2316 12.162 18.1585 12.1603 18.085V15.2875C12.1603 14.1005 12.5645 12.962 13.2839 12.1226C14.0034 11.2832 14.9792 10.8116 15.9967 10.8116C16.6713 10.8118 17.3336 11.0223 17.915 11.4215V10.1403C17.4591 9.902 16.9733 9.75088 16.4763 9.69267V8.5737H15.5172V9.69267C14.3363 9.84973 13.2456 10.5054 12.4505 11.536C11.6554 12.5666 11.2111 13.901 11.2011 15.2875V17.8612L9.90633 19.3718C9.85952 19.4211 9.82242 19.4816 9.79759 19.5492C9.77275 19.6168 9.76077 19.6899 9.76246 19.7634V21.4419C9.75822 21.5167 9.76772 21.5916 9.79032 21.6617C9.81292 21.7319 9.8481 21.7955 9.89351 21.8485C9.93891 21.9015 9.9935 21.9425 10.0536 21.9689C10.1137 21.9953 10.1779 22.0063 10.242 22.0014H13.5989C13.5989 22.7433 13.8516 23.4549 14.3012 23.9795C14.7509 24.5041 15.3608 24.7988 15.9967 24.7988C16.6327 24.7988 17.2426 24.5041 17.6922 23.9795C18.1419 23.4549 18.3945 22.7433 18.3945 22.0014H21.7515C21.8155 22.0063 21.8798 21.9953 21.9399 21.9689C22 21.9425 22.0546 21.9015 22.1 21.8485C22.1454 21.7955 22.1806 21.7319 22.2032 21.6617C22.2258 21.5916 22.2353 21.5167 22.231 21.4419V19.7634C22.2327 19.6899 22.2207 19.6168 22.1959 19.5492C22.1711 19.4816 22.134 19.4211 22.0872 19.3718L20.7923 17.8612ZM15.9967 23.6799C15.6152 23.6799 15.2492 23.503 14.9794 23.1882C14.7096 22.8735 14.5581 22.4466 14.5581 22.0014H17.4354C17.4354 22.4466 17.2839 22.8735 17.014 23.1882C16.7442 23.503 16.3783 23.6799 15.9967 23.6799Z" fill="#333333"/>
<path d="M20.7923 17.8612V16.4065H19.8332V18.085C19.8315 18.1585 19.8435 18.2316 19.8684 18.2992C19.8932 18.3668 19.9303 18.4273 19.9771 18.4766L21.2719 19.9872V20.8824H10.7216V19.9872L12.0164 18.4766C12.0632 18.4273 12.1003 18.3668 12.1251 18.2992C12.15 18.2316 12.162 18.1585 12.1603 18.085V15.2875C12.1603 14.1005 12.5645 12.962 13.2839 12.1226C14.0034 11.2832 14.9792 10.8116 15.9967 10.8116C16.6713 10.8118 17.3336 11.0223 17.915 11.4215V10.1403C17.4591 9.902 16.9733 9.75088 16.4763 9.69267V8.5737H15.5172V9.69267C14.3363 9.84973 13.2456 10.5054 12.4505 11.536C11.6554 12.5666 11.2111 13.901 11.2011 15.2875V17.8612L9.90633 19.3718C9.85952 19.4211 9.82242 19.4816 9.79759 19.5492C9.77275 19.6168 9.76077 19.6899 9.76246 19.7634V21.4419C9.75822 21.5167 9.76772 21.5916 9.79032 21.6617C9.81292 21.7319 9.8481 21.7955 9.89351 21.8485C9.93891 21.9015 9.9935 21.9425 10.0536 21.9689C10.1137 21.9953 10.1779 22.0063 10.242 22.0014H13.5989C13.5989 22.7433 13.8516 23.4549 14.3012 23.9795C14.7509 24.5041 15.3608 24.7988 15.9967 24.7988C16.6327 24.7988 17.2426 24.5041 17.6922 23.9795C18.1419 23.4549 18.3945 22.7433 18.3945 22.0014H21.7515C21.8155 22.0063 21.8798 21.9953 21.9399 21.9689C22 21.9425 22.0546 21.9015 22.1 21.8485C22.1454 21.7955 22.1806 21.7319 22.2032 21.6617C22.2258 21.5916 22.2353 21.5167 22.231 21.4419V19.7634C22.2327 19.6899 22.2207 19.6168 22.1959 19.5492C22.1711 19.4816 22.134 19.4211 22.0872 19.3718L20.7923 17.8612ZM15.9967 23.6799C15.6152 23.6799 15.2492 23.503 14.9794 23.1882C14.7096 22.8735 14.5581 22.4466 14.5581 22.0014H17.4354C17.4354 22.4466 17.2839 22.8735 17.014 23.1882C16.7442 23.503 16.3783 23.6799 15.9967 23.6799Z" fill="#333333"/>
<path d="M20.5775 14.7279C21.7555 14.7279 22.7105 13.7259 22.7105 12.49C22.7105 11.254 21.7555 10.252 20.5775 10.252C19.3995 10.252 18.4446 11.254 18.4446 12.49C18.4446 13.7259 19.3995 14.7279 20.5775 14.7279Z" fill="#333333"/>
<path d="M20.5775 14.7279C21.7555 14.7279 22.7105 13.7259 22.7105 12.49C22.7105 11.254 21.7555 10.252 20.5775 10.252C19.3995 10.252 18.4446 11.254 18.4446 12.49C18.4446 13.7259 19.3995 14.7279 20.5775 14.7279Z" fill="#333333"/>
</svg>
